<?xml version="1.0" standalone="no"?>
<!DOCTYPE svg PUBLIC "-//W3C//DTD SVG 20010904//EN"
 "http://www.w3.org/TR/2001/REC-SVG-20010904/DTD/svg10.dtd">
<svg version="1.0" xmlns="http://www.w3.org/2000/svg"
 width="1097.000000pt" height="1097.000000pt" viewBox="0 0 1097.000000 1097.000000"
 preserveAspectRatio="xMidYMid meet">
<metadata>
Created by potrace 1.11, written by Peter Selinger 2001-2013
</metadata>
<g transform="translate(0.000000,1097.000000) scale(0.100000,-0.100000)"
fill="#000000" stroke="none">
<path d="M2653 8572 l-133 -3 -1 -47 c-2 -201 0 -424 3 -428 3 -2 165 -5 361
-6 238 -2 353 -6 349 -13 -3 -5 1 -5 9 2 16 13 501 15 493 2 -2 -4 0 -11 6
-14 6 -4 9 -1 8 7 -2 11 57 13 317 14 179 0 328 -3 339 -9 12 -6 16 -6 12 1
-7 12 33 10 53 -3 10 -5 12 -4 7 3 -4 7 -1 12 9 12 10 0 13 -5 9 -12 -5 -7 -3
-8 7 -2 19 12 89 13 113 1 13 -6 16 -6 12 2 -4 6 -2 11 3 11 6 0 11 -4 11 -9
0 -15 -43 -91 -52 -91 -4 0 -8 -5 -8 -10 0 -9 -115 -195 -160 -260 -17 -24
-357 -552 -382 -592 -13 -21 -52 -83 -88 -138 -36 -55 -81 -125 -100 -155 -19
-31 -152 -236 -294 -458 -143 -221 -328 -508 -411 -637 -191 -298 -517 -803
-691 -1073 l-134 -209 0 -169 0 -169 148 -1 c81 -1 157 0 170 1 13 1 30 -4 39
-12 11 -8 14 -9 10 -1 -10 16 92 16 112 0 12 -9 13 -9 7 1 -10 16 172 15 193
-1 11 -9 13 -9 8 0 -10 16 92 16 112 0 11 -9 13 -9 8 0 -10 16 92 16 112 0 11
-9 13 -9 8 0 -10 16 131 17 152 0 11 -9 13 -9 8 0 -11 17 371 17 392 0 11 -9
13 -9 8 0 -10 16 92 16 112 0 12 -9 13 -9 7 1 -6 9 22 12 126 12 93 0 138 -4
147 -12 9 -8 12 -9 7 -1 -9 16 132 17 153 0 11 -9 13 -9 8 0 -10 16 212 16
232 0 11 -9 13 -9 8 0 -10 16 92 16 112 0 11 -9 13 -9 8 0 -10 16 172 16 192
0 11 -9 13 -9 8 0 -10 16 92 16 112 0 11 -9 13 -9 8 0 -10 16 92 16 112 0 11
-9 13 -9 8 0 -5 9 19 12 93 11 73 0 98 -3 94 -11 -4 -7 1 -5 11 5 15 14 18 37
19 172 0 86 -1 156 -4 156 -5 0 -3 125 3 150 3 12 -4 14 -36 11 -31 -3 -38 -1
-31 10 6 11 5 12 -7 3 -10 -9 -282 -12 -1027 -11 -927 0 -1011 1 -1000 16 10
12 8 12 -8 -2 -24 -20 -59 -24 -48 -4 6 9 4 9 -7 0 -17 -17 -32 -17 -23 0 6 9
4 9 -8 -1 -12 -9 -18 -10 -23 -2 -5 8 -10 8 -20 0 -10 -8 -14 -7 -18 2 -4 10
-6 10 -6 1 -1 -7 -6 -13 -12 -13 -5 0 -8 4 -4 9 3 5 0 13 -6 17 -7 4 -9 3 -5
-4 12 -19 -15 -24 -30 -6 -14 18 -14 18 -7 0 4 -13 3 -17 -5 -12 -13 8 -16 36
-4 36 4 0 13 12 19 28 7 15 24 40 38 56 14 16 25 33 25 38 0 5 4 6 10 3 6 -3
7 1 4 9 -3 9 -1 16 5 16 6 0 10 3 9 8 -5 18 23 51 40 46 14 -5 14 -4 2 4 -12
9 -12 13 3 30 9 10 17 24 17 31 0 7 6 11 13 8 7 -3 13 5 13 19 1 13 9 31 18
39 9 9 16 21 16 26 0 5 5 9 11 9 5 0 7 -6 3 -12 -4 -7 -3 -9 1 -5 13 11 15 38
3 31 -5 -3 -4 3 4 15 7 12 16 21 20 21 5 0 8 5 8 10 0 6 7 22 16 36 14 20 19
22 33 12 14 -12 14 -11 3 4 -14 18 -7 43 9 33 5 -3 6 0 4 8 -3 7 3 24 15 37
11 13 20 27 20 32 0 5 4 6 10 3 6 -3 7 1 4 9 -3 9 -1 16 6 16 6 0 8 5 5 10 -3
6 -3 10 2 10 4 0 21 23 36 50 16 28 30 50 33 50 3 0 2 -5 -2 -12 -4 -7 -3 -8
5 -4 6 4 9 11 6 16 -8 14 43 90 57 86 7 -1 10 -1 6 1 -13 8 -9 23 6 23 8 0 18
4 21 10 4 6 -1 7 -12 3 -17 -6 -17 -5 0 14 9 11 17 24 17 30 0 6 10 18 23 27
12 9 16 14 9 10 -8 -3 -2 12 13 35 26 38 36 46 58 42 5 -1 6 3 2 9 -3 6 -11 8
-16 5 -5 -3 -6 1 -3 9 3 9 10 16 15 16 5 0 9 7 9 15 0 9 7 18 15 21 8 4 15 12
15 20 0 8 5 14 10 14 6 0 9 6 8 13 -2 6 3 11 10 9 8 -1 11 1 8 6 -8 13 58 114
69 105 4 -4 5 -2 1 5 -7 11 26 68 47 83 5 3 8 9 8 13 -3 18 0 20 10 6 8 -12 9
-10 4 8 -6 21 4 27 36 24 3 -1 6 6 6 13 0 11 -4 12 -14 4 -23 -20 -14 7 12 35
13 14 25 29 25 31 0 14 32 65 41 65 6 0 8 4 4 9 -3 5 5 17 17 25 12 9 19 16
15 16 -4 0 -3 9 3 20 6 11 16 17 22 14 6 -4 8 -3 5 4 -10 16 4 44 19 38 8 -3
11 0 8 8 -3 7 30 67 72 134 66 104 80 120 93 110 13 -10 14 -10 4 2 -18 20
-16 33 4 26 10 -4 14 -4 10 0 -4 4 1 13 11 21 16 12 15 13 -3 6 -19 -6 -19 -6
-2 14 9 11 17 24 17 29 0 5 9 16 19 24 11 7 18 17 16 21 -3 3 8 24 23 45 15
22 40 60 55 87 15 26 34 47 41 47 8 0 20 8 27 18 13 15 12 16 -4 3 -31 -25
-29 -4 3 33 18 20 29 36 26 36 -3 0 12 27 35 60 22 33 44 60 49 60 4 0 7 8 6
18 0 9 5 16 12 14 8 -1 11 2 8 6 -8 13 99 174 109 164 4 -4 5 -2 1 5 -9 16 63
125 77 116 6 -3 7 -1 3 5 -8 13 23 72 37 72 4 0 6 4 2 9 -3 5 3 16 13 23 11 7
20 16 21 20 5 24 14 37 22 32 5 -3 6 1 3 9 -3 8 1 21 9 29 8 8 22 29 31 46 10
19 21 30 28 26 6 -4 8 -3 4 4 -7 12 79 152 94 152 5 0 6 8 3 17 -5 12 -2 15
10 10 11 -4 14 -2 11 7 -3 7 2 19 10 26 9 7 13 16 10 21 -3 5 -1 9 5 9 5 0 13
9 16 20 4 11 11 18 16 15 5 -4 6 2 2 11 -5 14 -3 16 11 11 9 -4 15 -3 11 2 -8
14 6 42 18 34 6 -3 7 -1 3 5 -7 12 5 41 26 64 7 7 22 30 33 51 11 20 23 37 27
37 5 0 8 7 8 15 0 8 8 15 18 15 13 0 14 2 4 9 -9 5 -13 25 -11 58 1 27 -1 54
-4 60 -4 7 -3 14 3 18 6 4 8 11 5 16 -4 5 -6 50 -7 99 l0 90 -62 0 c-494 3
-2535 4 -2633 2z"/>
<path d="M5719 8558 c-1 -2 -2 -112 -3 -245 l-2 -243 111 -1 c60 0 347 0 637
0 l528 0 0 -1976 c0 -1087 2 -1978 3 -1980 4 -3 277 -6 443 -4 l102 1 1 73 c2
39 4 83 5 97 1 14 -1 33 -6 42 -11 23 8 33 21 11 6 -10 11 -13 11 -7 0 6 -6
17 -14 23 -10 8 -13 42 -14 129 0 64 -1 122 -2 127 -5 22 1 46 9 40 5 -3 13 0
17 6 4 8 3 9 -4 5 -6 -3 -16 3 -22 14 -6 11 -7 20 -3 20 10 0 9 102 -1 118 -3
6 -2 13 3 17 5 3 14 -3 20 -12 6 -10 11 -13 11 -7 0 6 -6 17 -14 23 -10 8 -13
42 -14 129 0 64 -1 122 -2 127 -5 22 1 46 9 40 5 -3 13 0 17 6 4 8 3 9 -4 5
-6 -3 -16 3 -22 14 -6 11 -7 20 -3 20 10 0 9 102 -1 118 -3 6 -2 13 3 17 5 3
14 -3 20 -12 6 -10 11 -13 11 -7 0 6 -6 17 -14 23 -10 8 -13 42 -14 129 0 64
-1 122 -2 127 -5 22 1 46 9 40 5 -3 13 0 17 6 4 8 3 9 -4 5 -6 -3 -16 3 -22
14 -6 11 -7 20 -3 20 10 0 9 102 -1 118 -3 6 -2 13 3 17 5 3 14 -3 20 -12 6
-10 11 -13 11 -7 0 6 -7 17 -16 25 -8 7 -13 21 -11 31 3 10 1 21 -4 24 -5 3
-7 10 -3 15 3 6 12 5 22 -3 16 -12 16 -11 0 7 -9 11 -16 36 -16 55 1 19 -1 42
-3 50 -2 9 2 14 10 12 11 -2 12 0 3 10 -6 8 -10 27 -8 43 1 17 -1 38 -6 47
-11 23 8 33 21 11 6 -10 11 -13 11 -7 0 6 -6 17 -14 23 -10 8 -13 42 -14 129
0 64 -1 122 -2 127 -5 22 1 46 9 40 5 -3 13 0 17 6 4 8 3 9 -4 5 -6 -3 -16 3
-22 14 -6 11 -7 20 -3 20 10 0 9 102 -1 118 -3 6 -2 13 3 17 5 3 14 -3 20 -12
6 -10 11 -13 11 -7 0 6 -6 17 -14 23 -10 8 -13 42 -14 129 0 64 -1 122 -2 127
-5 22 1 46 9 40 5 -3 13 0 17 6 4 8 3 9 -4 5 -6 -3 -16 3 -22 14 -6 11 -7 20
-3 20 10 0 9 102 -1 118 -3 6 -2 13 3 17 5 3 14 -3 20 -12 6 -10 11 -13 11 -7
0 6 -6 17 -14 23 -10 8 -13 42 -14 129 0 64 -1 122 -2 127 -5 22 1 46 9 40 5
-3 13 0 17 6 4 8 3 9 -4 5 -6 -3 -16 3 -22 14 -6 11 -7 20 -3 20 10 0 9 102
-1 118 -3 6 -2 13 3 17 5 3 14 -3 20 -12 6 -10 11 -13 11 -7 0 6 -6 17 -13 23
-10 8 -14 40 -15 109 0 54 -2 102 -3 108 -4 23 3 26 24 8 l22 -19 -21 25 c-16
19 -22 40 -23 83 -1 32 -2 62 -2 65 -4 23 3 42 11 37 6 -4 7 -12 4 -18 -4 -7
-3 -8 1 -4 5 4 10 15 11 23 1 9 0 13 -3 10 -12 -11 -31 15 -26 35 5 16 8 17
22 7 13 -10 12 -9 -1 8 -32 37 -23 46 45 43 34 -1 68 -7 76 -13 11 -8 13 -8 8
1 -6 10 114 12 545 12 304 0 561 0 570 0 12 1 17 9 17 24 -1 12 2 32 4 45 3
12 2 22 -3 22 -5 0 -7 6 -4 14 3 8 13 12 22 10 16 -5 16 -5 1 5 -14 9 -17 32
-17 138 0 71 -1 152 -1 181 l-1 52 -1550 0 c-852 0 -1551 -1 -1551 -2z"/>
<path d="M5379 8458 c-5 -18 -6 -38 -1 -34 7 8 12 36 6 36 -2 0 -4 -1 -5 -2z"/>
<path d="M8850 8389 c0 -5 5 -7 10 -4 6 3 10 8 10 11 0 2 -4 4 -10 4 -5 0 -10
-5 -10 -11z"/>
<path d="M8895 8370 c-3 -5 -1 -10 4 -10 6 0 11 5 11 10 0 6 -2 10 -4 10 -3 0
-8 -4 -11 -10z"/>
<path d="M5414 8326 c1 -8 5 -18 8 -22 4 -3 5 1 4 10 -1 8 -5 18 -8 22 -4 3
-5 -1 -4 -10z"/>
<path d="M8895 8311 c-3 -5 -2 -12 3 -15 5 -3 9 1 9 9 0 17 -3 19 -12 6z"/>
<path d="M8830 8296 c0 -2 7 -7 16 -10 8 -3 12 -2 9 4 -6 10 -25 14 -25 6z"/>
<path d="M8895 8230 c-3 -5 -1 -10 4 -10 6 0 11 5 11 10 0 6 -2 10 -4 10 -3 0
-8 -4 -11 -10z"/>
<path d="M5370 8189 c0 -5 5 -7 10 -4 6 3 10 8 10 11 0 2 -4 4 -10 4 -5 0 -10
-5 -10 -11z"/>
<path d="M8875 8170 c3 -5 8 -10 11 -10 2 0 4 5 4 10 0 6 -5 10 -11 10 -5 0
-7 -4 -4 -10z"/>
<path d="M5366 8108 c3 -5 10 -6 15 -3 13 9 11 12 -6 12 -8 0 -12 -4 -9 -9z"/>
<path d="M5309 8093 c-13 -16 -12 -17 4 -4 9 7 17 15 17 17 0 8 -8 3 -21 -13z"/>
<path d="M5271 8077 c-13 -21 -12 -21 5 -5 10 10 16 20 13 22 -3 3 -11 -5 -18
-17z"/>
<path d="M4015 8070 c3 -5 8 -10 11 -10 2 0 4 5 4 10 0 6 -5 10 -11 10 -5 0
-7 -4 -4 -10z"/>
<path d="M4050 8069 c0 -5 5 -7 10 -4 6 3 10 8 10 11 0 2 -4 4 -10 4 -5 0 -10
-5 -10 -11z"/>
<path d="M8853 8073 c4 -3 -1 -16 -10 -27 -18 -21 -18 -21 4 -2 20 16 23 36 6
36 -4 0 -3 -3 0 -7z"/>
<path d="M2993 8055 c0 -8 4 -12 9 -9 5 3 6 10 3 15 -9 13 -12 11 -12 -6z"/>
<path d="M2846 8052 c-3 -5 1 -9 9 -9 8 0 12 4 9 9 -3 4 -7 8 -9 8 -2 0 -6 -4
-9 -8z"/>
<path d="M3033 8045 c0 -8 4 -12 9 -9 4 3 8 9 8 15 0 5 -4 9 -8 9 -5 0 -9 -7
-9 -15z"/>
<path d="M3235 8051 c-3 -5 -2 -12 3 -15 5 -3 9 1 9 9 0 17 -3 19 -12 6z"/>
<path d="M3936 8052 c-3 -5 1 -9 9 -9 8 0 12 4 9 9 -3 4 -7 8 -9 8 -2 0 -6 -4
-9 -8z"/>
<path d="M4154 8046 c1 -8 5 -18 8 -22 4 -3 5 1 4 10 -1 8 -5 18 -8 22 -4 3
-5 -1 -4 -10z"/>
<path d="M4193 8045 c0 -8 4 -12 9 -9 5 3 6 10 3 15 -9 13 -12 11 -12 -6z"/>
<path d="M6170 8050 c0 -5 5 -10 11 -10 5 0 7 5 4 10 -3 6 -8 10 -11 10 -2 0
-4 -4 -4 -10z"/>
<path d="M6570 8050 c0 -5 5 -10 11 -10 5 0 7 5 4 10 -3 6 -8 10 -11 10 -2 0
-4 -4 -4 -10z"/>
<path d="M6810 8050 c0 -5 5 -10 11 -10 5 0 7 5 4 10 -3 6 -8 10 -11 10 -2 0
-4 -4 -4 -10z"/>
<path d="M7560 8055 c0 -2 6 -8 13 -14 10 -8 14 -7 14 2 0 8 -6 14 -14 14 -7
0 -13 -1 -13 -2z"/>
<path d="M7619 8043 c-13 -16 -12 -17 4 -4 9 7 17 15 17 17 0 8 -8 3 -21 -13z"/>
<path d="M8170 8050 c0 -5 5 -10 11 -10 5 0 7 5 4 10 -3 6 -8 10 -11 10 -2 0
-4 -4 -4 -10z"/>
<path d="M8410 8050 c0 -5 5 -10 11 -10 5 0 7 5 4 10 -3 6 -8 10 -11 10 -2 0
-4 -4 -4 -10z"/>
<path d="M8627 8049 c7 -7 15 -10 18 -7 3 3 -2 9 -12 12 -14 6 -15 5 -6 -5z"/>
<path d="M7915 8040 c-4 -6 -11 -7 -17 -4 -7 4 -8 2 -4 -5 6 -9 11 -9 22 0 14
11 18 19 10 19 -3 0 -8 -5 -11 -10z"/>
<path d="M8715 8040 c-4 -6 -11 -7 -17 -4 -7 4 -8 2 -4 -5 6 -9 11 -9 22 0 14
11 18 19 10 19 -3 0 -8 -5 -11 -10z"/>
<path d="M4573 8025 c0 -8 4 -12 9 -9 5 3 6 10 3 15 -9 13 -12 11 -12 -6z"/>
<path d="M6030 8035 c0 -7 30 -13 34 -7 3 4 -4 9 -15 9 -10 1 -19 0 -19 -2z"/>
<path d="M6096 8032 c-3 -5 1 -9 9 -9 8 0 12 4 9 9 -3 4 -7 8 -9 8 -2 0 -6 -4
-9 -8z"/>
<path d="M6270 8035 c0 -7 30 -13 34 -7 3 4 -4 9 -15 9 -10 1 -19 0 -19 -2z"/>
<path d="M6330 8035 c0 -7 30 -13 34 -7 3 4 -4 9 -15 9 -10 1 -19 0 -19 -2z"/>
<path d="M6430 8035 c0 -7 30 -13 34 -7 3 4 -4 9 -15 9 -10 1 -19 0 -19 -2z"/>
<path d="M6490 8035 c0 -7 30 -13 34 -7 3 4 -4 9 -15 9 -10 1 -19 0 -19 -2z"/>
<path d="M6670 8035 c0 -7 30 -13 34 -7 3 4 -4 9 -15 9 -10 1 -19 0 -19 -2z"/>
<path d="M6736 8032 c-3 -5 1 -9 9 -9 8 0 12 4 9 9 -3 4 -7 8 -9 8 -2 0 -6 -4
-9 -8z"/>
<path d="M6915 8029 c-3 -4 2 -6 10 -5 21 3 28 13 10 13 -9 0 -18 -4 -20 -8z"/>
<path d="M8030 8035 c0 -7 30 -13 34 -7 3 4 -4 9 -15 9 -10 1 -19 0 -19 -2z"/>
<path d="M8090 8035 c0 -7 30 -13 34 -7 3 4 -4 9 -15 9 -10 1 -19 0 -19 -2z"/>
<path d="M8270 8035 c0 -7 30 -13 34 -7 3 4 -4 9 -15 9 -10 1 -19 0 -19 -2z"/>
<path d="M8336 8032 c-3 -5 1 -9 9 -9 8 0 12 4 9 9 -3 4 -7 8 -9 8 -2 0 -6 -4
-9 -8z"/>
<path d="M8510 8035 c0 -7 30 -13 34 -7 3 4 -4 9 -15 9 -10 1 -19 0 -19 -2z"/>
<path d="M8570 8035 c0 -7 30 -13 34 -7 3 4 -4 9 -15 9 -10 1 -19 0 -19 -2z"/>
<path d="M7715 7991 c-3 -5 -2 -12 3 -15 5 -3 9 1 9 9 0 17 -3 19 -12 6z"/>
<path d="M7589 7953 c-13 -16 -12 -17 4 -4 16 13 21 21 13 21 -2 0 -10 -8 -17
-17z"/>
<path d="M7553 7905 c0 -8 4 -12 9 -9 5 3 6 10 3 15 -9 13 -12 11 -12 -6z"/>
<path d="M7580 7916 c0 -2 8 -10 18 -17 15 -13 16 -12 3 4 -13 16 -21 21 -21
13z"/>
<path d="M7555 7871 c-3 -5 -2 -12 3 -15 5 -3 9 1 9 9 0 17 -3 19 -12 6z"/>
<path d="M5145 7830 c-3 -6 1 -7 9 -4 18 7 21 14 7 14 -6 0 -13 -4 -16 -10z"/>
<path d="M5107 7809 c7 -7 15 -10 18 -7 3 3 -2 9 -12 12 -14 6 -15 5 -6 -5z"/>
<path d="M5180 7816 c0 -2 8 -10 18 -17 15 -13 16 -12 3 4 -13 16 -21 21 -21
13z"/>
<path d="M7616 7792 c-3 -5 1 -9 9 -9 8 0 12 4 9 9 -3 4 -7 8 -9 8 -2 0 -6 -4
-9 -8z"/>
<path d="M5110 7787 c0 -2 6 -10 14 -16 11 -9 16 -9 22 1 4 7 4 10 -1 6 -4 -4
-14 -3 -22 3 -7 6 -13 9 -13 6z"/>
<path d="M5113 7745 c0 -8 4 -12 9 -9 5 3 6 10 3 15 -9 13 -12 11 -12 -6z"/>
<path d="M5174 7748 c-4 -7 -4 -10 1 -6 4 4 15 2 24 -5 14 -11 14 -10 2 6 -16
20 -18 21 -27 5z"/>
<path d="M7556 7737 c3 -10 9 -15 12 -12 3 3 0 11 -7 18 -10 9 -11 8 -5 -6z"/>
<path d="M7613 7719 c-2 -23 3 -25 10 -4 4 8 3 16 -1 19 -4 3 -9 -4 -9 -15z"/>
<path d="M7613 7661 c0 -11 5 -18 9 -15 4 3 5 11 1 19 -7 21 -12 19 -10 -4z"/>
<path d="M7550 7666 c0 -2 8 -10 18 -17 15 -13 16 -12 3 4 -13 16 -21 21 -21
13z"/>
<path d="M4973 7603 c0 -6 5 -9 11 -5 6 4 14 7 18 7 19 0 14 11 -6 11 -12 0
-23 -6 -23 -13z"/>
<path d="M5085 7610 c-3 -6 1 -7 9 -4 18 7 21 14 7 14 -6 0 -13 -4 -16 -10z"/>
<path d="M7616 7588 c3 -5 10 -6 15 -3 13 9 11 12 -6 12 -8 0 -12 -4 -9 -9z"/>
<path d="M4986 7568 c3 -5 10 -6 15 -3 13 9 11 12 -6 12 -8 0 -12 -4 -9 -9z"/>
<path d="M5056 7572 c-3 -5 1 -9 9 -9 8 0 12 4 9 9 -3 4 -7 8 -9 8 -2 0 -6 -4
-9 -8z"/>
<path d="M4959 7565 c-1 -3 -2 -8 -3 -12 -1 -5 -4 -13 -8 -19 -4 -6 -1 -11 5
-11 7 0 13 11 13 24 0 21 -4 31 -7 18z"/>
<path d="M7595 7539 c-4 -6 -5 -12 -2 -15 2 -3 7 2 10 11 7 17 1 20 -8 4z"/>
<path d="M4956 7483 c-6 -14 -5 -15 5 -6 7 7 10 15 7 18 -3 3 -9 -2 -12 -12z"/>
<path d="M7619 7498 c-5 -18 -6 -38 -1 -34 7 8 12 36 6 36 -2 0 -4 -1 -5 -2z"/>
<path d="M4880 7465 c-7 -9 -11 -17 -9 -20 3 -2 10 5 17 15 14 24 10 26 -8 5z"/>
<path d="M7675 7431 c-3 -5 -2 -12 3 -15 5 -3 9 1 9 9 0 17 -3 19 -12 6z"/>
<path d="M7615 7421 c-3 -5 -2 -12 3 -15 5 -3 9 1 9 9 0 17 -3 19 -12 6z"/>
<path d="M4930 7410 c0 -5 5 -10 11 -10 5 0 7 5 4 10 -3 6 -8 10 -11 10 -2 0
-4 -4 -4 -10z"/>
<path d="M7616 7312 c-3 -5 1 -9 9 -9 8 0 12 4 9 9 -3 4 -7 8 -9 8 -2 0 -6 -4
-9 -8z"/>
<path d="M4849 7287 c6 -8 7 -18 3 -22 -4 -5 -1 -5 6 -1 10 6 10 11 1 22 -6 8
-14 14 -16 14 -3 0 0 -6 6 -13z"/>
<path d="M7556 7257 c3 -10 9 -15 12 -12 3 3 0 11 -7 18 -10 9 -11 8 -5 -6z"/>
<path d="M7613 7239 c-2 -23 3 -25 10 -4 4 8 3 16 -1 19 -4 3 -9 -4 -9 -15z"/>
<path d="M4710 7206 c0 -2 8 -10 18 -17 15 -13 16 -12 3 4 -13 16 -21 21 -21
13z"/>
<path d="M7613 7181 c0 -11 5 -18 9 -15 4 3 5 11 1 19 -7 21 -12 19 -10 -4z"/>
<path d="M7550 7186 c0 -2 8 -10 18 -17 15 -13 16 -12 3 4 -13 16 -21 21 -21
13z"/>
<path d="M4715 7139 c-4 -6 -5 -12 -2 -15 2 -3 7 2 10 11 7 17 1 20 -8 4z"/>
<path d="M4665 7110 c-3 -6 1 -7 9 -4 18 7 21 14 7 14 -6 0 -13 -4 -16 -10z"/>
<path d="M7616 7108 c3 -5 10 -6 15 -3 13 9 11 12 -6 12 -8 0 -12 -4 -9 -9z"/>
<path d="M4667 7069 c7 -7 15 -10 18 -7 3 3 -2 9 -12 12 -14 6 -15 5 -6 -5z"/>
<path d="M7595 7059 c-4 -6 -5 -12 -2 -15 2 -3 7 2 10 11 7 17 1 20 -8 4z"/>
<path d="M7619 7018 c-5 -18 -6 -38 -1 -34 7 8 12 36 6 36 -2 0 -4 -1 -5 -2z"/>
<path d="M4650 6955 c0 -5 5 -17 10 -25 5 -8 10 -10 10 -5 0 6 -5 17 -10 25
-5 8 -10 11 -10 5z"/>
<path d="M7675 6951 c-3 -5 -2 -12 3 -15 5 -3 9 1 9 9 0 17 -3 19 -12 6z"/>
<path d="M7615 6941 c-3 -5 -2 -12 3 -15 5 -3 9 1 9 9 0 17 -3 19 -12 6z"/>
<path d="M4614 6926 c1 -8 5 -18 8 -22 4 -3 5 1 4 10 -1 8 -5 18 -8 22 -4 3
-5 -1 -4 -10z"/>
<path d="M4493 6843 c0 -6 5 -9 11 -5 6 4 14 7 18 7 19 0 14 11 -6 11 -12 0
-23 -6 -23 -13z"/>
<path d="M7616 6832 c-3 -5 1 -9 9 -9 8 0 12 4 9 9 -3 4 -7 8 -9 8 -2 0 -6 -4
-9 -8z"/>
<path d="M4530 6789 c0 -5 5 -7 10 -4 6 3 10 8 10 11 0 2 -4 4 -10 4 -5 0 -10
-5 -10 -11z"/>
<path d="M7556 6777 c3 -10 9 -15 12 -12 3 3 0 11 -7 18 -10 9 -11 8 -5 -6z"/>
<path d="M7613 6759 c-2 -23 3 -25 10 -4 4 8 3 16 -1 19 -4 3 -9 -4 -9 -15z"/>
<path d="M4431 6744 c6 -7 7 -19 3 -25 -4 -7 -3 -9 4 -5 15 9 11 43 -5 43 -9
0 -10 -4 -2 -13z"/>
<path d="M4470 6726 c7 -7 13 -7 20 0 6 6 3 10 -10 10 -13 0 -16 -4 -10 -10z"/>
<path d="M4530 6729 c0 -5 5 -7 10 -4 6 3 10 8 10 11 0 2 -4 4 -10 4 -5 0 -10
-5 -10 -11z"/>
<path d="M7613 6701 c0 -11 5 -18 9 -15 4 3 5 11 1 19 -7 21 -12 19 -10 -4z"/>
<path d="M7550 6706 c0 -2 8 -10 18 -17 15 -13 16 -12 3 4 -13 16 -21 21 -21
13z"/>
<path d="M4465 6690 c-3 -6 1 -7 9 -4 18 7 21 14 7 14 -6 0 -13 -4 -16 -10z"/>
<path d="M7616 6628 c3 -5 10 -6 15 -3 13 9 11 12 -6 12 -8 0 -12 -4 -9 -9z"/>
<path d="M7595 6579 c-4 -6 -5 -12 -2 -15 2 -3 7 2 10 11 7 17 1 20 -8 4z"/>
<path d="M4355 6571 c-3 -5 -2 -12 3 -15 5 -3 9 1 9 9 0 17 -3 19 -12 6z"/>
<path d="M7619 6538 c-5 -18 -6 -38 -1 -34 7 8 12 36 6 36 -2 0 -4 -1 -5 -2z"/>
<path d="M4266 6488 c3 -4 9 -8 15 -8 5 0 9 4 9 8 0 5 -7 9 -15 9 -8 0 -12 -4
-9 -9z"/>
<path d="M4314 6466 c1 -8 5 -18 8 -22 4 -3 5 1 4 10 -1 8 -5 18 -8 22 -4 3
-5 -1 -4 -10z"/>
<path d="M7675 6471 c-3 -5 -2 -12 3 -15 5 -3 9 1 9 9 0 17 -3 19 -12 6z"/>
<path d="M4276 6457 c3 -10 9 -15 12 -12 3 3 0 11 -7 18 -10 9 -11 8 -5 -6z"/>
<path d="M7615 6461 c-3 -5 -2 -12 3 -15 5 -3 9 1 9 9 0 17 -3 19 -12 6z"/>
<path d="M4273 6417 c0 -8 6 -14 14 -14 9 0 10 4 2 14 -6 7 -12 13 -14 13 -1
0 -2 -6 -2 -13z"/>
<path d="M4236 6408 c3 -5 10 -6 15 -3 13 9 11 12 -6 12 -8 0 -12 -4 -9 -9z"/>
<path d="M4176 6372 c-3 -5 1 -9 9 -9 8 0 12 4 9 9 -3 4 -7 8 -9 8 -2 0 -6 -4
-9 -8z"/>
<path d="M7616 6352 c-3 -5 1 -9 9 -9 8 0 12 4 9 9 -3 4 -7 8 -9 8 -2 0 -6 -4
-9 -8z"/>
<path d="M4216 6328 c3 -5 10 -6 15 -3 13 9 11 12 -6 12 -8 0 -12 -4 -9 -9z"/>
<path d="M4265 6330 c-3 -6 1 -7 9 -4 18 7 21 14 7 14 -6 0 -13 -4 -16 -10z"/>
<path d="M4190 6309 c0 -5 5 -7 10 -4 6 3 10 8 10 11 0 2 -4 4 -10 4 -5 0 -10
-5 -10 -11z"/>
<path d="M7556 6297 c3 -10 9 -15 12 -12 3 3 0 11 -7 18 -10 9 -11 8 -5 -6z"/>
<path d="M4126 6288 c3 -5 10 -6 15 -3 13 9 11 12 -6 12 -8 0 -12 -4 -9 -9z"/>
<path d="M7613 6279 c-2 -23 3 -25 10 -4 4 8 3 16 -1 19 -4 3 -9 -4 -9 -15z"/>
<path d="M4135 6260 c-4 -6 -12 -7 -18 -4 -7 4 -9 4 -5 -1 4 -4 2 -15 -4 -24
-7 -9 0 -5 15 8 15 14 27 26 27 28 0 7 -9 3 -15 -7z"/>
<path d="M7613 6221 c0 -11 5 -18 9 -15 4 3 5 11 1 19 -7 21 -12 19 -10 -4z"/>
<path d="M7550 6226 c0 -2 8 -10 18 -17 15 -13 16 -12 3 4 -13 16 -21 21 -21
13z"/>
<path d="M4145 6210 c-3 -6 1 -7 9 -4 18 7 21 14 7 14 -6 0 -13 -4 -16 -10z"/>
<path d="M4080 6185 c-7 -9 -11 -17 -9 -20 3 -2 10 5 17 15 14 24 10 26 -8 5z"/>
<path d="M7616 6148 c3 -5 10 -6 15 -3 13 9 11 12 -6 12 -8 0 -12 -4 -9 -9z"/>
<path d="M4030 6106 c7 -7 13 -7 20 0 6 6 3 10 -10 10 -13 0 -16 -4 -10 -10z"/>
<path d="M7595 6099 c-4 -6 -5 -12 -2 -15 2 -3 7 2 10 11 7 17 1 20 -8 4z"/>
<path d="M4030 6069 c0 -5 5 -7 10 -4 6 3 10 8 10 11 0 2 -4 4 -10 4 -5 0 -10
-5 -10 -11z"/>
<path d="M7619 6058 c-5 -18 -6 -38 -1 -34 7 8 12 36 6 36 -2 0 -4 -1 -5 -2z"/>
<path d="M4050 6030 c0 -5 5 -10 11 -10 5 0 7 5 4 10 -3 6 -8 10 -11 10 -2 0
-4 -4 -4 -10z"/>
<path d="M3980 5976 c0 -2 8 -10 18 -17 15 -13 16 -12 3 4 -13 16 -21 21 -21
13z"/>
<path d="M3897 5921 c-10 -14 -10 -14 4 -4 9 7 18 10 21 7 3 -3 8 -1 12 4 9
16 -24 9 -37 -7z"/>
<path d="M3955 5930 c-3 -5 -1 -10 4 -10 6 0 11 5 11 10 0 6 -2 10 -4 10 -3 0
-8 -4 -11 -10z"/>
<path d="M3954 5892 c4 -3 14 -7 22 -8 9 -1 13 0 10 4 -4 3 -14 7 -22 8 -9 1
-13 0 -10 -4z"/>
<path d="M7595 5891 c-3 -5 -2 -12 3 -15 5 -3 9 1 9 9 0 17 -3 19 -12 6z"/>
<path d="M3835 5850 c-3 -5 -1 -10 4 -10 6 0 11 5 11 10 0 6 -2 10 -4 10 -3 0
-8 -4 -11 -10z"/>
<path d="M7616 5828 c3 -5 10 -6 15 -3 13 9 11 12 -6 12 -8 0 -12 -4 -9 -9z"/>
<path d="M3895 5790 c3 -5 8 -10 11 -10 2 0 4 5 4 10 0 6 -5 10 -11 10 -5 0
-7 -4 -4 -10z"/>
<path d="M7595 5779 c-4 -6 -5 -12 -2 -15 2 -3 7 2 10 11 7 17 1 20 -8 4z"/>
<path d="M3850 5749 c0 -5 5 -7 10 -4 6 3 10 8 10 11 0 2 -4 4 -10 4 -5 0 -10
-5 -10 -11z"/>
<path d="M7619 5738 c-5 -18 -6 -38 -1 -34 7 8 12 36 6 36 -2 0 -4 -1 -5 -2z"/>
<path d="M3787 5709 c7 -7 15 -10 18 -7 3 3 -2 9 -12 12 -14 6 -15 5 -6 -5z"/>
<path d="M3853 5705 c0 -8 4 -12 9 -9 5 3 6 10 3 15 -9 13 -12 11 -12 -6z"/>
<path d="M3750 5689 c0 -5 5 -7 10 -4 6 3 10 8 10 11 0 2 -4 4 -10 4 -5 0 -10
-5 -10 -11z"/>
<path d="M7615 5661 c-3 -5 -2 -12 3 -15 5 -3 9 1 9 9 0 17 -3 19 -12 6z"/>
<path d="M3695 5631 c-3 -5 -2 -12 3 -15 5 -3 9 1 9 9 0 17 -3 19 -12 6z"/>
<path d="M3710 5590 c0 -4 7 -7 15 -6 23 3 26 12 5 13 -11 1 -20 -2 -20 -7z"/>
<path d="M7616 5552 c-3 -5 1 -9 9 -9 8 0 12 4 9 9 -3 4 -7 8 -9 8 -2 0 -6 -4
-9 -8z"/>
<path d="M7556 5497 c3 -10 9 -15 12 -12 3 3 0 11 -7 18 -10 9 -11 8 -5 -6z"/>
<path d="M7613 5479 c-2 -23 3 -25 10 -4 4 8 3 16 -1 19 -4 3 -9 -4 -9 -15z"/>
<path d="M7613 5421 c0 -11 5 -18 9 -15 4 3 5 11 1 19 -7 21 -12 19 -10 -4z"/>
<path d="M7550 5426 c0 -2 8 -10 18 -17 15 -13 16 -12 3 4 -13 16 -21 21 -21
13z"/>
<path d="M3553 5383 c0 -9 4 -10 14 -2 7 6 13 12 13 14 0 1 -6 2 -13 2 -8 0
-14 -6 -14 -14z"/>
<path d="M3545 5350 c-3 -6 1 -7 9 -4 18 7 21 14 7 14 -6 0 -13 -4 -16 -10z"/>
<path d="M3606 5352 c-3 -5 1 -9 9 -9 8 0 12 4 9 9 -3 4 -7 8 -9 8 -2 0 -6 -4
-9 -8z"/>
<path d="M7616 5348 c3 -5 10 -6 15 -3 13 9 11 12 -6 12 -8 0 -12 -4 -9 -9z"/>
<path d="M3513 5315 c0 -8 4 -12 9 -9 5 3 6 10 3 15 -9 13 -12 11 -12 -6z"/>
<path d="M7595 5299 c-4 -6 -5 -12 -2 -15 2 -3 7 2 10 11 7 17 1 20 -8 4z"/>
<path d="M7619 5258 c-5 -18 -6 -38 -1 -34 7 8 12 36 6 36 -2 0 -4 -1 -5 -2z"/>
<path d="M3467 5229 c7 -7 15 -10 18 -7 3 3 -2 9 -12 12 -14 6 -15 5 -6 -5z"/>
<path d="M3535 5230 c3 -5 8 -10 11 -10 2 0 4 5 4 10 0 6 -5 10 -11 10 -5 0
-7 -4 -4 -10z"/>
<path d="M7615 5181 c-3 -5 -2 -12 3 -15 5 -3 9 1 9 9 0 17 -3 19 -12 6z"/>
<path d="M3400 5175 c0 -2 6 -8 13 -14 10 -8 14 -7 14 2 0 8 -6 14 -14 14 -7
0 -13 -1 -13 -2z"/>
<path d="M3556 5137 c3 -10 9 -15 12 -12 3 3 0 11 -7 18 -10 9 -11 8 -5 -6z"/>
<path d="M3345 5090 c-3 -6 1 -7 9 -4 18 7 21 14 7 14 -6 0 -13 -4 -16 -10z"/>
<path d="M3456 5092 c-3 -5 1 -9 9 -9 8 0 12 4 9 9 -3 4 -7 8 -9 8 -2 0 -6 -4
-9 -8z"/>
<path d="M7616 5072 c-3 -5 1 -9 9 -9 8 0 12 4 9 9 -3 4 -7 8 -9 8 -2 0 -6 -4
-9 -8z"/>
<path d="M3354 5039 c-3 -6 -2 -15 3 -20 5 -5 9 -1 9 11 0 23 -2 24 -12 9z"/>
<path d="M7556 5017 c3 -10 9 -15 12 -12 3 3 0 11 -7 18 -10 9 -11 8 -5 -6z"/>
<path d="M7613 4999 c-2 -23 3 -25 10 -4 4 8 3 16 -1 19 -4 3 -9 -4 -9 -15z"/>
<path d="M3326 4988 c3 -5 10 -6 15 -3 13 9 11 12 -6 12 -8 0 -12 -4 -9 -9z"/>
<path d="M7613 4941 c0 -11 5 -18 9 -15 4 3 5 11 1 19 -7 21 -12 19 -10 -4z"/>
<path d="M7550 4946 c0 -2 8 -10 18 -17 15 -13 16 -12 3 4 -13 16 -21 21 -21
13z"/>
<path d="M3267 4909 c7 -7 15 -10 18 -7 3 3 -2 9 -12 12 -14 6 -15 5 -6 -5z"/>
<path d="M3336 4908 c3 -4 11 -5 19 -1 21 7 19 12 -4 10 -11 0 -18 -5 -15 -9z"/>
<path d="M7616 4868 c3 -5 10 -6 15 -3 13 9 11 12 -6 12 -8 0 -12 -4 -9 -9z"/>
<path d="M3210 4866 c0 -2 8 -10 18 -17 15 -13 16 -12 3 4 -13 16 -21 21 -21
13z"/>
<path d="M7595 4819 c-4 -6 -5 -12 -2 -15 2 -3 7 2 10 11 7 17 1 20 -8 4z"/>
<path d="M3253 4795 c0 -8 4 -12 9 -9 5 3 6 10 3 15 -9 13 -12 11 -12 -6z"/>
<path d="M7619 4778 c-5 -18 -6 -38 -1 -34 7 8 12 36 6 36 -2 0 -4 -1 -5 -2z"/>
<path d="M3216 4708 c3 -5 10 -6 15 -3 13 9 11 12 -6 12 -8 0 -12 -4 -9 -9z"/>
<path d="M7615 4701 c-3 -5 -2 -12 3 -15 5 -3 9 1 9 9 0 17 -3 19 -12 6z"/>
<path d="M3105 4669 c-3 -4 2 -6 10 -5 21 3 28 13 10 13 -9 0 -18 -4 -20 -8z"/>
<path d="M3153 4655 c0 -8 4 -12 9 -9 5 3 6 10 3 15 -9 13 -12 11 -12 -6z"/>
<path d="M7616 4592 c-3 -5 1 -9 9 -9 8 0 12 4 9 9 -3 4 -7 8 -9 8 -2 0 -6 -4
-9 -8z"/>
<path d="M7556 4537 c3 -10 9 -15 12 -12 3 3 0 11 -7 18 -10 9 -11 8 -5 -6z"/>
<path d="M7613 4519 c-2 -23 3 -25 10 -4 4 8 3 16 -1 19 -4 3 -9 -4 -9 -15z"/>
<path d="M7613 4461 c0 -11 5 -18 9 -15 4 3 5 11 1 19 -7 21 -12 19 -10 -4z"/>
<path d="M7550 4466 c0 -2 8 -10 18 -17 15 -13 16 -12 3 4 -13 16 -21 21 -21
13z"/>
<path d="M7616 4388 c3 -5 10 -6 15 -3 13 9 11 12 -6 12 -8 0 -12 -4 -9 -9z"/>
<path d="M7595 4339 c-4 -6 -5 -12 -2 -15 2 -3 7 2 10 11 7 17 1 20 -8 4z"/>
<path d="M5454 4326 c1 -8 5 -18 8 -22 4 -3 5 1 4 10 -1 8 -5 18 -8 22 -4 3
-5 -1 -4 -10z"/>
<path d="M7619 4298 c-5 -18 -6 -38 -1 -34 7 8 12 36 6 36 -2 0 -4 -1 -5 -2z"/>
<path d="M5417 4165 c-4 -8 -3 -16 1 -19 4 -3 9 4 9 15 2 23 -3 25 -10 4z"/>
<path d="M3553 4095 c0 -8 4 -12 9 -9 5 3 6 10 3 15 -9 13 -12 11 -12 -6z"/>
<path d="M3636 4097 c3 -10 9 -15 12 -12 3 3 0 11 -7 18 -10 9 -11 8 -5 -6z"/>
<path d="M3956 4097 c3 -10 9 -15 12 -12 3 3 0 11 -7 18 -10 9 -11 8 -5 -6z"/>
<path d="M4110 4106 c0 -2 8 -10 18 -17 15 -13 16 -12 3 4 -13 16 -21 21 -21
13z"/>
<path d="M3055 4090 c-3 -5 -1 -10 4 -10 6 0 11 5 11 10 0 6 -2 10 -4 10 -3 0
-8 -4 -11 -10z"/>
<path d="M3360 4090 c-9 -6 -10 -10 -3 -10 6 0 15 5 18 10 8 12 4 12 -15 0z"/>
<path d="M3995 4090 c3 -5 8 -10 11 -10 2 0 4 5 4 10 0 6 -5 10 -11 10 -5 0
-7 -4 -4 -10z"/>
<path d="M4320 4090 c-9 -6 -10 -10 -3 -10 6 0 15 5 18 10 8 12 4 12 -15 0z"/>
<path d="M4655 4090 c-3 -5 -1 -10 4 -10 6 0 11 5 11 10 0 6 -2 10 -4 10 -3 0
-8 -4 -11 -10z"/>
<path d="M4975 4090 c-3 -5 -1 -10 4 -10 6 0 11 5 11 10 0 6 -2 10 -4 10 -3 0
-8 -4 -11 -10z"/>
<path d="M7390 4091 c0 -6 4 -13 10 -16 6 -3 7 1 4 9 -7 18 -14 21 -14 7z"/>
<path d="M7513 4085 c0 -8 4 -12 9 -9 5 3 6 10 3 15 -9 13 -12 11 -12 -6z"/>
<path d="M2755 4070 c-3 -5 -1 -10 4 -10 6 0 11 5 11 10 0 6 -2 10 -4 10 -3 0
-8 -4 -11 -10z"/>
<path d="M2990 4070 c0 -5 5 -10 11 -10 5 0 7 5 4 10 -3 6 -8 10 -11 10 -2 0
-4 -4 -4 -10z"/>
<path d="M3573 4073 c4 -3 1 -13 -6 -22 -11 -14 -10 -14 5 -2 16 12 16 31 1
31 -4 0 -3 -3 0 -7z"/>
<path d="M3616 4071 c-3 -5 2 -15 12 -22 15 -12 16 -12 5 2 -7 9 -10 19 -6 22
3 4 4 7 0 7 -3 0 -8 -4 -11 -9z"/>
<path d="M4590 4070 c0 -5 5 -10 11 -10 5 0 7 5 4 10 -3 6 -8 10 -11 10 -2 0
-4 -4 -4 -10z"/>
<path d="M4910 4070 c0 -5 5 -10 11 -10 5 0 7 5 4 10 -3 6 -8 10 -11 10 -2 0
-4 -4 -4 -10z"/>
<path d="M7215 4071 c-3 -5 -2 -12 3 -15 5 -3 9 1 9 9 0 17 -3 19 -12 6z"/>
<path d="M7165 4050 c10 -11 20 -20 23 -20 3 0 -3 9 -13 20 -10 11 -20 20 -23
20 -3 0 3 -9 13 -20z"/>
<path d="M2870 4050 c0 -5 5 -10 10 -10 6 0 10 5 10 10 0 6 -4 10 -10 10 -5 0
-10 -4 -10 -10z"/>
<path d="M2839 4003 c-13 -16 -12 -17 4 -4 16 13 21 21 13 21 -2 0 -10 -8 -17
-17z"/>
<path d="M469 3727 c-173 -52 -300 -171 -359 -339 -29 -83 -32 -103 -35 -233
-3 -120 15 -228 47 -295 25 -50 81 -135 102 -153 12 -10 32 -29 46 -41 32 -28
147 -86 171 -86 10 0 20 -4 23 -9 7 -10 287 -11 301 -1 11 8 84 25 102 23 7 0
11 3 8 7 -3 5 1 10 7 12 10 4 10 15 -1 54 -7 27 -14 54 -14 60 0 7 -15 5 -41
-6 -23 -10 -66 -22 -96 -26 -61 -9 -177 -7 -194 3 -5 4 -20 8 -33 9 -34 4
-113 46 -129 69 -8 10 -14 16 -14 11 0 -16 -58 57 -84 106 -14 26 -26 57 -26
67 0 11 -4 23 -10 26 -15 9 -12 37 3 30 6 -4 5 -1 -4 7 -12 10 -16 37 -17 121
0 60 3 119 8 133 6 14 12 38 15 53 3 16 12 41 20 57 8 16 15 34 15 40 0 20
115 132 159 154 25 12 61 23 82 24 20 0 35 4 32 9 -6 9 129 12 178 3 38 -7 85
-19 94 -24 27 -17 45 -11 45 13 0 14 5 25 11 25 5 0 8 4 5 9 -4 5 -2 21 3 34
9 23 7 27 -32 42 -62 25 -72 27 -197 30 -97 3 -127 0 -191 -18z"/>
<path d="M6150 3696 c0 -7 9 -51 21 -97 12 -46 23 -95 26 -109 8 -41 11 -55
13 -55 1 0 3 -9 5 -20 2 -11 14 -58 25 -105 12 -47 23 -96 26 -110 3 -14 11
-50 19 -81 8 -30 17 -66 19 -80 2 -13 5 -24 6 -24 1 0 3 -7 5 -15 2 -8 10 -46
20 -85 9 -38 18 -77 20 -85 2 -8 11 -46 20 -85 9 -38 18 -77 20 -85 2 -8 8
-34 14 -58 12 -42 12 -42 59 -43 52 -1 95 1 100 6 3 3 10 30 11 48 1 5 5 6 10
2 5 -3 13 0 17 6 4 8 3 9 -4 5 -8 -5 -12 1 -12 18 0 14 5 28 11 31 6 4 8 13 5
20 -2 7 -2 16 2 20 4 4 8 11 8 16 1 5 2 10 4 12 1 1 4 16 6 32 3 17 12 55 20
85 8 30 17 66 20 80 2 14 7 32 11 40 8 19 11 29 17 60 3 14 15 61 26 105 12
44 21 86 22 93 1 6 5 12 10 12 5 0 7 4 4 9 -4 5 -1 32 6 60 9 40 15 51 27 46
14 -4 14 -3 0 8 -11 8 -14 19 -9 32 4 12 11 43 14 70 8 56 15 70 17 34 4 -64
5 -75 12 -85 3 -6 8 -36 9 -67 2 -30 6 -53 11 -50 4 2 8 -8 9 -24 1 -33 3 -43
10 -63 18 -48 49 -211 42 -222 -4 -7 -3 -9 2 -5 7 6 37 -104 68 -253 3 -14 10
-45 16 -70 6 -25 13 -60 16 -77 l7 -33 78 0 c73 0 79 2 79 21 0 11 3 18 8 16
4 -3 8 10 8 28 1 18 8 47 17 64 9 17 11 28 5 25 -6 -4 -6 0 1 13 6 11 7 23 4
27 -3 3 -2 6 4 6 5 0 10 14 11 31 0 17 6 37 13 45 6 8 9 17 6 21 -3 3 0 21 8
39 8 19 12 34 10 34 -3 0 0 11 5 25 5 14 12 36 14 48 19 86 50 193 57 195 5 2
7 8 3 13 -3 5 0 24 6 43 6 18 13 43 15 55 3 11 7 29 10 39 25 93 31 112 36
107 4 -3 4 6 2 20 -3 15 -1 25 6 25 7 0 10 4 6 10 -3 5 6 50 20 99 14 49 25
93 25 96 0 3 -32 5 -72 3 l-72 -3 -66 -263 c-36 -145 -68 -261 -70 -258 -3 2
-6 -8 -7 -22 -2 -42 -12 -92 -20 -105 -8 -13 -9 -19 -11 -60 -1 -19 -6 -26
-14 -21 -6 4 -8 3 -4 -4 3 -6 -4 -61 -16 -123 -16 -79 -24 -106 -28 -89 -4 14
-6 37 -5 53 1 15 -1 27 -4 27 -4 0 -8 12 -9 28 -1 15 -7 50 -13 77 -7 28 -13
59 -13 70 -1 11 -5 26 -9 33 -5 6 -6 12 -4 12 3 0 -1 20 -9 45 -10 34 -10 44
-1 38 8 -5 8 -2 -1 9 -7 9 -15 27 -18 39 -3 13 -8 35 -11 49 -3 14 -6 37 -7
53 0 15 -4 27 -7 27 -4 0 -12 30 -19 68 -14 74 -15 78 -30 140 -6 24 -7 48 -4
54 4 7 2 8 -4 4 -8 -5 -12 0 -12 13 0 12 -5 41 -12 66 l-12 46 -74 -3 -74 -3
-39 -150 c-21 -82 -41 -159 -43 -170 -9 -42 -95 -381 -105 -413 -5 -18 -10
-36 -11 -40 -6 -51 -14 -84 -22 -88 -6 -4 -6 -9 -1 -13 5 -3 3 -26 -3 -51 -13
-46 -15 -41 -18 32 0 14 -4 24 -7 22 -10 -6 -21 84 -13 98 4 6 3 8 -3 5 -11
-7 -26 60 -27 115 -1 14 -3 25 -7 23 -3 -2 -13 33 -22 78 -10 45 -26 120 -36
167 -10 47 -33 154 -51 238 l-33 152 -74 0 c-55 0 -73 -3 -73 -14z"/>
<path d="M8308 3680 c-27 -27 -30 -36 -25 -72 8 -56 36 -82 91 -83 25 -1 43 2
40 7 -3 4 0 8 6 8 17 0 40 64 34 96 -2 16 -16 39 -30 52 -36 32 -79 29 -116
-8z"/>
<path d="M3193 3628 l-63 -20 0 -99 0 -99 -60 0 -60 0 0 -58 0 -58 48 1 c26 1
52 0 59 -3 9 -3 12 -72 13 -260 1 -294 2 -309 36 -378 21 -44 32 -55 76 -74
41 -17 64 -21 117 -18 104 7 112 12 104 62 -3 17 -6 40 -7 51 -1 12 -8 19 -16
16 -35 -8 -86 -7 -99 3 -8 6 -16 10 -18 8 -2 -1 -11 4 -19 13 -9 8 -12 15 -7
15 4 0 1 5 -7 10 -13 8 -16 52 -18 276 -3 209 0 269 10 275 7 5 16 3 20 -4 6
-9 8 -8 8 2 0 11 3 11 15 1 12 -10 15 -10 15 0 0 10 3 10 14 1 11 -9 16 -9 21
0 6 8 10 7 16 -2 7 -11 9 -11 9 1 0 13 1 13 10 0 5 -8 10 -10 10 -4 0 6 7 11
15 11 8 0 15 -4 15 -9 0 -5 5 -6 10 -3 6 3 10 34 10 68 l0 62 -75 -2 c-66 -2
-73 0 -69 15 5 14 4 15 -5 2 -5 -8 -20 -16 -31 -16 -20 -1 -21 3 -18 67 2 38
1 69 -2 69 -3 0 -4 23 -3 50 1 28 -1 50 -5 49 -4 -1 -35 -10 -69 -21z"/>
<path d="M5765 3645 c-5 -2 -36 -11 -67 -20 l-58 -16 0 -100 c0 -54 -3 -98 -7
-98 -5 1 -32 1 -60 0 l-53 -1 0 -58 0 -58 60 1 60 1 0 -268 c0 -147 1 -271 1
-275 10 -55 37 -113 64 -138 62 -56 64 -57 155 -54 30 1 67 2 82 2 15 0 25 4
22 8 -3 5 -2 9 3 9 4 0 6 25 5 56 l-4 56 -34 -5 c-23 -4 -34 -2 -34 6 0 8 -4
7 -9 -2 -8 -12 -14 -12 -41 -1 -45 19 -64 53 -66 121 -1 32 -5 63 -9 69 -3 5
-2 10 4 10 7 0 7 8 1 24 -6 17 -4 30 7 46 9 13 11 20 5 16 -13 -8 -13 -7 -14
59 -1 25 2 48 5 51 3 3 2 16 -3 28 -4 13 -4 29 0 36 5 8 4 22 -1 32 -5 10 -6
18 -1 18 4 0 8 21 8 46 -1 37 3 47 17 50 9 1 17 -3 17 -9 0 -8 3 -8 8 -2 4 6
25 11 47 11 22 0 43 -5 47 -11 5 -6 8 -6 8 2 0 6 8 10 18 8 9 -1 22 1 28 6 10
9 10 96 -1 107 -3 3 -48 5 -100 5 -52 0 -95 3 -95 8 0 20 2 24 13 21 6 -2 4 4
-3 13 -9 11 -13 44 -12 106 0 49 0 89 -1 88 -1 0 -6 -2 -12 -4z"/>
<path d="M8873 3607 l-63 -19 0 -100 0 -100 -60 4 -61 3 3 -65 c2 -52 6 -64
18 -61 26 6 74 8 88 4 9 -4 12 -67 12 -270 0 -163 4 -282 11 -311 13 -54 50
-109 85 -124 13 -6 21 -14 19 -18 -2 -4 41 -7 95 -7 125 -1 127 1 121 121 -1
10 -9 12 -33 7 -85 -19 -148 14 -139 72 0 4 -4 7 -9 7 -12 0 -14 519 -2 521
38 6 90 4 106 -4 13 -6 16 -6 12 2 -4 6 -2 11 3 11 6 0 11 -5 11 -10 0 -7 6
-7 18 -2 9 5 23 7 30 5 9 -3 12 12 12 56 0 42 -4 61 -12 62 -7 1 -52 1 -100 0
l-88 -2 -1 83 c-1 46 0 97 1 114 1 18 -2 34 -7 36 -4 3 -36 -4 -70 -15z"/>
<path d="M396 3532 c-3 -5 1 -9 9 -9 8 0 12 4 9 9 -3 4 -7 8 -9 8 -2 0 -6 -4
-9 -8z"/>
<path d="M5833 3445 c0 -8 4 -12 9 -9 5 3 6 10 3 15 -9 13 -12 11 -12 -6z"/>
<path d="M6975 3430 c3 -5 8 -10 11 -10 2 0 4 5 4 10 0 6 -5 10 -11 10 -5 0
-7 -4 -4 -10z"/>
<path d="M1343 3410 c-177 -63 -273 -232 -260 -455 11 -173 85 -301 207 -356
25 -11 52 -24 60 -29 30 -15 202 -5 245 14 22 11 45 20 52 21 6 2 22 12 34 24
12 11 27 18 32 14 6 -3 7 -1 3 5 -3 6 2 17 12 24 21 15 82 110 82 126 0 7 4
12 8 12 4 0 8 8 8 18 1 9 5 37 9 62 5 25 9 64 9 87 0 23 4 39 9 36 5 -3 4 4
-2 16 -9 16 -9 21 1 21 10 0 10 3 -1 9 -8 5 -11 16 -8 24 3 8 1 19 -3 23 -5 5
-10 24 -12 42 -1 17 -6 32 -10 32 -4 0 -8 7 -8 15 0 45 -100 163 -161 190 -21
10 -37 21 -35 24 5 7 -14 10 -129 15 -71 4 -101 1 -142 -14z m185 -104 c32 -7
43 -16 36 -28 -5 -7 -2 -8 6 -3 15 10 73 -52 63 -68 -3 -5 -1 -7 5 -3 6 4 19
-16 33 -51 23 -60 32 -202 17 -266 -20 -84 -82 -167 -147 -194 -45 -19 -91
-24 -91 -10 0 8 -3 8 -11 0 -12 -12 -49 -6 -49 9 0 5 -4 6 -10 3 -5 -3 -21 5
-35 19 -14 15 -31 26 -37 26 -6 0 -9 3 -5 6 3 3 -4 16 -15 29 -11 13 -20 27
-20 32 1 4 -6 18 -14 31 -8 12 -12 22 -8 22 4 0 1 7 -6 15 -10 12 -10 15 1 15
12 0 12 2 0 9 -8 5 -11 16 -8 25 4 9 2 16 -2 16 -12 0 -5 134 10 179 29 92
101 183 131 165 7 -4 8 -3 4 4 -14 23 79 34 152 18z"/>
<path d="M1376 2963 c-6 -14 -5 -15 5 -6 7 7 10 15 7 18 -3 3 -9 -2 -12 -12z"/>
<path d="M2401 3410 c-30 -11 -67 -31 -81 -45 -15 -14 -30 -22 -34 -18 -4 5
-6 4 -5 -2 2 -5 -4 -23 -14 -40 -9 -16 -17 -24 -18 -17 -5 41 -7 56 -8 87 l-1
35 -63 0 -62 0 2 -407 c1 -225 2 -411 2 -415 2 -14 141 -9 142 5 0 6 1 129 1
272 0 276 7 319 50 358 11 9 17 17 13 17 -12 0 50 47 71 54 39 12 108 8 138
-7 41 -22 85 -74 74 -89 -1 -2 5 -14 12 -28 11 -19 15 -88 16 -300 2 -151 3
-278 3 -282 1 -3 34 -8 74 -10 l72 -3 -2 276 c0 151 -4 293 -8 315 -4 21 -8
49 -8 61 -1 12 -4 20 -8 17 -4 -2 -10 8 -14 23 -10 40 -61 100 -110 129 -62
36 -160 42 -234 14z"/>
<path d="M3903 3409 c-148 -57 -248 -236 -242 -433 4 -145 40 -237 120 -318
26 -25 46 -48 44 -50 -2 -2 4 -4 13 -5 26 -2 92 -27 92 -35 0 -3 10 -4 22 0
11 3 19 1 16 -4 -8 -12 195 0 252 16 25 6 55 18 67 25 19 13 20 18 11 52 -6
21 -12 43 -14 50 -2 8 -20 6 -62 -7 -96 -30 -282 -22 -282 11 0 6 -4 8 -8 5
-13 -8 -53 24 -46 36 4 6 2 8 -4 4 -13 -8 -43 34 -64 92 -11 27 -12 40 -5 35
9 -5 9 -3 0 8 -6 8 -13 28 -15 44 l-3 30 240 2 c132 1 257 2 278 3 l37 0 0 68
c0 37 -4 81 -9 99 -7 22 -6 33 2 37 9 3 9 5 1 5 -6 1 -21 27 -33 59 -26 69
-69 118 -135 157 -42 25 -61 29 -135 31 -66 2 -98 -2 -138 -17z m83 -101 c-11
18 62 16 107 -3 34 -14 91 -72 89 -91 0 -5 4 -14 10 -21 5 -6 12 -35 15 -63
l5 -50 -206 0 c-199 1 -206 2 -206 21 0 11 4 18 9 15 4 -3 6 6 3 21 -4 19 -2
24 8 18 9 -5 11 -4 6 3 -9 15 26 81 55 107 44 38 83 54 98 42 12 -9 13 -9 7 1z"/>
<path d="M4925 3420 c-16 -6 -36 -8 -43 -5 -7 3 -10 0 -7 -5 3 -6 2 -10 -3
-10 -10 0 -113 -87 -112 -95 1 -21 -1 -27 -7 -22 -7 8 -11 35 -12 90 l-1 37
-62 0 -63 0 0 -415 0 -415 71 0 c42 0 76 -5 84 -12 12 -11 12 -10 3 2 -15 20
-14 180 1 199 8 11 8 13 -1 8 -15 -10 -16 92 0 112 8 10 8 13 1 8 -8 -5 -12
11 -13 54 0 45 3 58 12 53 8 -6 8 -3 -1 9 -30 36 -6 154 45 222 19 25 24 27
32 15 5 -8 7 -18 4 -24 -3 -5 -1 -6 5 -2 9 5 9 13 2 26 -8 15 -6 21 10 30 11
6 24 8 29 5 5 -3 11 0 13 5 4 13 98 16 107 4 3 -5 13 -10 21 -12 24 -4 71 -65
66 -85 -2 -9 -1 -15 4 -12 17 11 23 -52 26 -315 2 -151 3 -278 4 -282 0 -5 32
-8 70 -8 l70 0 0 53 c3 348 2 509 -4 514 -3 3 0 13 7 21 9 13 9 14 0 8 -9 -5
-13 -1 -13 11 -1 65 -68 169 -135 208 -51 31 -155 43 -210 25z"/>
<path d="M7987 3407 c-77 -12 -128 -54 -174 -140 l-22 -42 -1 83 0 82 -63 0
-64 0 3 -47 c1 -27 2 -213 3 -415 l1 -368 70 0 69 0 4 258 c2 141 6 269 10
284 14 52 65 128 86 128 6 0 11 4 11 9 0 14 90 30 115 21 20 -8 21 -5 21 64 0
40 -4 77 -10 82 -7 6 -30 7 -59 1z"/>
<path d="M355 3399 c-4 -6 -5 -12 -2 -15 2 -3 7 2 10 11 7 17 1 20 -8 4z"/>
<path d="M9625 3403 c-39 -9 -104 -43 -140 -74 -85 -75 -133 -188 -142 -329
-17 -284 136 -464 392 -460 70 1 177 19 226 38 26 10 26 11 15 60 -13 61 -18
67 -46 52 -37 -20 -62 -24 -165 -26 -87 -2 -106 1 -145 21 -76 39 -122 107
-135 200 -2 11 -4 25 -5 30 -7 33 -2 34 271 33 187 0 273 3 278 10 12 19 -7
177 -28 237 -11 32 -18 62 -15 67 3 5 0 7 -8 6 -7 -2 -12 5 -12 14 1 10 -1 16
-5 13 -10 -6 -41 32 -33 41 4 4 2 4 -5 0 -6 -3 -15 0 -20 7 -19 31 -106 61
-183 63 -41 1 -84 -1 -95 -3z m161 -128 c8 -10 14 -15 14 -10 0 12 39 -30 62
-67 10 -15 21 -51 24 -82 8 -65 9 -64 -129 -56 -48 3 -99 2 -112 -2 -14 -3
-25 -3 -25 0 0 8 -107 5 -127 -2 -9 -4 -12 4 -9 27 3 18 6 33 7 35 1 1 2 5 4
10 18 66 67 129 119 153 54 26 152 22 172 -6z"/>
<path d="M10565 3390 c-22 -10 -47 -25 -56 -32 -27 -22 -79 -100 -73 -109 3
-5 0 -9 -5 -9 -7 0 -11 29 -11 75 l0 75 -62 0 -63 0 2 -232 c2 -128 3 -315 3
-415 l0 -183 70 0 70 0 0 123 c0 280 7 421 18 425 7 2 10 7 7 12 -7 12 35 81
64 105 37 31 83 45 100 31 11 -8 13 -8 8 1 -5 8 1 11 19 10 23 -2 27 2 29 28
1 17 5 37 10 44 5 10 4 12 -4 7 -9 -6 -10 0 -5 19 12 48 -48 60 -121 25z"/>
<path d="M8299 3378 c-1 -18 -1 -790 0 -805 1 -9 22 -13 71 -13 l70 0 1 53 c0
28 1 117 1 197 0 95 4 150 11 159 9 12 9 13 0 7 -9 -5 -13 0 -13 14 0 12 4 19
9 15 5 -3 13 -1 16 5 4 6 1 9 -7 8 -14 -3 -16 18 -17 240 l-1 132 -70 0 c-49
0 -70 -4 -71 -12z"/>
<path d="M7025 3290 c-3 -6 1 -7 9 -4 18 7 21 14 7 14 -6 0 -13 -4 -16 -10z"/>
<path d="M5890 3270 c0 -5 5 -10 11 -10 5 0 7 5 4 10 -3 6 -8 10 -11 10 -2 0
-4 -4 -4 -10z"/>
<path d="M2435 3259 c-4 -6 -5 -12 -2 -15 2 -3 7 2 10 11 7 17 1 20 -8 4z"/>
<path d="M5895 3230 c-2 -3 5 -7 16 -7 10 -1 19 2 19 6 0 9 -29 10 -35 1z"/>
<path d="M5990 3236 c0 -2 7 -7 16 -10 8 -3 12 -2 9 4 -6 10 -25 14 -25 6z"/>
<path d="M3359 3203 c-13 -16 -12 -17 4 -4 16 13 21 21 13 21 -2 0 -10 -8 -17
-17z"/>
<path d="M8079 3183 c-13 -16 -12 -17 4 -4 16 13 21 21 13 21 -2 0 -10 -8 -17
-17z"/>
<path d="M9035 3189 c-3 -4 2 -6 10 -5 21 3 28 13 10 13 -9 0 -18 -4 -20 -8z"/>
<path d="M9110 3191 c0 -6 4 -13 10 -16 6 -3 7 1 4 9 -7 18 -14 21 -14 7z"/>
<path d="M10535 3190 c-3 -5 -1 -10 4 -10 6 0 11 5 11 10 0 6 -2 10 -4 10 -3
0 -8 -4 -11 -10z"/>
<path d="M2370 3170 c0 -5 5 -10 11 -10 5 0 7 5 4 10 -3 6 -8 10 -11 10 -2 0
-4 -4 -4 -10z"/>
<path d="M3339 3178 c-5 -18 -6 -38 -1 -34 7 8 12 36 6 36 -2 0 -4 -1 -5 -2z"/>
<path d="M4856 3152 c-3 -5 1 -9 9 -9 8 0 12 4 9 9 -3 4 -7 8 -9 8 -2 0 -6 -4
-9 -8z"/>
<path d="M7894 3146 c1 -8 5 -18 8 -22 4 -3 5 1 4 10 -1 8 -5 18 -8 22 -4 3
-5 -1 -4 -10z"/>
<path d="M7926 3148 c3 -5 10 -6 15 -3 13 9 11 12 -6 12 -8 0 -12 -4 -9 -9z"/>
<path d="M8473 3145 c0 -8 4 -12 9 -9 5 3 6 10 3 15 -9 13 -12 11 -12 -6z"/>
<path d="M2280 3130 c-9 -6 -10 -10 -3 -10 6 0 15 5 18 10 8 12 4 12 -15 0z"/>
<path d="M4819 3138 c-5 -18 -6 -38 -1 -34 7 8 12 36 6 36 -2 0 -4 -1 -5 -2z"/>
<path d="M5290 3136 c0 -2 7 -7 16 -10 8 -3 12 -2 9 4 -6 10 -25 14 -25 6z"/>
<path d="M8036 3132 c-3 -5 1 -9 9 -9 8 0 12 4 9 9 -3 4 -7 8 -9 8 -2 0 -6 -4
-9 -8z"/>
<path d="M9150 3129 c0 -5 5 -7 10 -4 6 3 10 8 10 11 0 2 -4 4 -10 4 -5 0 -10
-5 -10 -11z"/>
<path d="M7936 3108 c3 -5 10 -6 15 -3 13 9 11 12 -6 12 -8 0 -12 -4 -9 -9z"/>
<path d="M10534 3106 c1 -8 5 -18 8 -22 4 -3 5 1 4 10 -1 8 -5 18 -8 22 -4 3
-5 -1 -4 -10z"/>
<path d="M1867 3089 c7 -7 15 -10 18 -7 3 3 -2 9 -12 12 -14 6 -15 5 -6 -5z"/>
<path d="M3325 3090 c-3 -6 1 -7 9 -4 18 7 21 14 7 14 -6 0 -13 -4 -16 -10z"/>
<path d="M7913 3085 c0 -8 4 -12 9 -9 5 3 6 10 3 15 -9 13 -12 11 -12 -6z"/>
<path d="M9010 3089 c0 -5 5 -7 10 -4 6 3 10 8 10 11 0 2 -4 4 -10 4 -5 0 -10
-5 -10 -11z"/>
<path d="M4795 3080 c-4 -6 -11 -7 -17 -4 -7 4 -8 2 -4 -5 6 -9 11 -9 22 0 14
11 18 19 10 19 -3 0 -8 -5 -11 -10z"/>
<path d="M7854 3066 c1 -8 5 -18 8 -22 4 -3 5 1 4 10 -1 8 -5 18 -8 22 -4 3
-5 -1 -4 -10z"/>
<path d="M10509 3053 c-13 -16 -12 -17 4 -4 16 13 21 21 13 21 -2 0 -10 -8
-17 -17z"/>
<path d="M7894 3032 c4 -3 14 -7 22 -8 9 -1 13 0 10 4 -4 3 -14 7 -22 8 -9 1
-13 0 -10 -4z"/>
<path d="M10540 3016 c0 -2 8 -10 18 -17 15 -13 16 -12 3 4 -13 16 -21 21 -21
13z"/>
<path d="M5313 2995 c0 -8 4 -12 9 -9 5 3 6 10 3 15 -9 13 -12 11 -12 -6z"/>
<path d="M2796 2977 c3 -10 9 -15 12 -12 3 3 0 11 -7 18 -10 9 -11 8 -5 -6z"/>
<path d="M1885 2970 c-3 -6 1 -7 9 -4 18 7 21 14 7 14 -6 0 -13 -4 -16 -10z"/>
<path d="M3890 2950 c0 -5 5 -10 11 -10 5 0 7 5 4 10 -3 6 -8 10 -11 10 -2 0
-4 -4 -4 -10z"/>
<path d="M10510 2951 c0 -6 4 -13 10 -16 6 -3 7 1 4 9 -7 18 -14 21 -14 7z"/>
<path d="M7866 2932 c-3 -5 1 -9 9 -9 8 0 12 4 9 9 -3 4 -7 8 -9 8 -2 0 -6 -4
-9 -8z"/>
<path d="M3896 2912 c-3 -5 1 -9 9 -9 8 0 12 4 9 9 -3 4 -7 8 -9 8 -2 0 -6 -4
-9 -8z"/>
<path d="M9530 2909 c0 -5 5 -7 10 -4 6 3 10 8 10 11 0 2 -4 4 -10 4 -5 0 -10
-5 -10 -11z"/>
<path d="M9670 2909 c0 -5 5 -7 10 -4 6 3 10 8 10 11 0 2 -4 4 -10 4 -5 0 -10
-5 -10 -11z"/>
<path d="M9960 2890 c-9 -6 -10 -10 -3 -10 6 0 15 5 18 10 8 12 4 12 -15 0z"/>
<path d="M3874 2872 c4 -3 14 -7 22 -8 9 -1 13 0 10 4 -4 3 -14 7 -22 8 -9 1
-13 0 -10 -4z"/>
<path d="M1856 2848 c3 -5 10 -6 15 -3 13 9 11 12 -6 12 -8 0 -12 -4 -9 -9z"/>
<path d="M5807 2849 c7 -7 15 -10 18 -7 3 3 -2 9 -12 12 -14 6 -15 5 -6 -5z"/>
<path d="M7916 2843 c-6 -14 -5 -15 5 -6 7 7 10 15 7 18 -3 3 -9 -2 -12 -12z"/>
<path d="M8500 2850 c-9 -6 -10 -10 -3 -10 6 0 15 5 18 10 8 12 4 12 -15 0z"/>
<path d="M9756 2848 c3 -5 10 -6 15 -3 13 9 11 12 -6 12 -8 0 -12 -4 -9 -9z"/>
<path d="M3856 2832 c-2 -4 -1 -14 4 -22 7 -11 9 -9 7 8 -1 24 -3 26 -11 14z"/>
<path d="M6653 2825 c0 -8 4 -12 9 -9 5 3 6 10 3 15 -9 13 -12 11 -12 -6z"/>
<path d="M9514 2832 c4 -3 14 -7 22 -8 9 -1 13 0 10 4 -4 3 -14 7 -22 8 -9 1
-13 0 -10 -4z"/>
<path d="M9576 2828 c3 -5 10 -6 15 -3 13 9 11 12 -6 12 -8 0 -12 -4 -9 -9z"/>
<path d="M1866 2808 c3 -5 10 -6 15 -3 13 9 11 12 -6 12 -8 0 -12 -4 -9 -9z"/>
<path d="M3336 2812 c-3 -5 1 -9 9 -9 8 0 12 4 9 9 -3 4 -7 8 -9 8 -2 0 -6 -4
-9 -8z"/>
<path d="M4830 2811 c0 -6 4 -13 10 -16 6 -3 7 1 4 9 -7 18 -14 21 -14 7z"/>
<path d="M9690 2810 c0 -5 5 -10 11 -10 5 0 7 5 4 10 -3 6 -8 10 -11 10 -2 0
-4 -4 -4 -10z"/>
<path d="M9536 2788 c3 -5 10 -6 15 -3 13 9 11 12 -6 12 -8 0 -12 -4 -9 -9z"/>
<path d="M5806 2768 c3 -5 10 -6 15 -3 13 9 11 12 -6 12 -8 0 -12 -4 -9 -9z"/>
<path d="M7355 2771 c-3 -5 -2 -12 3 -15 5 -3 9 1 9 9 0 17 -3 19 -12 6z"/>
<path d="M8490 2776 c0 -2 7 -7 16 -10 8 -3 12 -2 9 4 -6 10 -25 14 -25 6z"/>
<path d="M1826 2732 c-2 -4 4 -8 14 -8 10 0 16 4 14 8 -3 4 -9 8 -14 8 -5 0
-11 -4 -14 -8z"/>
<path d="M6650 2709 c0 -5 5 -7 10 -4 6 3 10 8 10 11 0 2 -4 4 -10 4 -5 0 -10
-5 -10 -11z"/>
<path d="M7250 2710 c0 -5 5 -10 11 -10 5 0 7 5 4 10 -3 6 -8 10 -11 10 -2 0
-4 -4 -4 -10z"/>
<path d="M10515 2690 c3 -5 8 -10 11 -10 2 0 4 5 4 10 0 6 -5 10 -11 10 -5 0
-7 -4 -4 -10z"/>
<path d="M6675 2681 c-3 -5 -2 -12 3 -15 5 -3 9 1 9 9 0 17 -3 19 -12 6z"/>
<path d="M7255 2670 c-3 -5 -1 -10 4 -10 6 0 11 5 11 10 0 6 -2 10 -4 10 -3 0
-8 -4 -11 -10z"/>
<path d="M7215 2630 c3 -5 8 -10 11 -10 2 0 4 5 4 10 0 6 -5 10 -11 10 -5 0
-7 -4 -4 -10z"/>
<path d="M6656 2612 c-3 -5 1 -9 9 -9 8 0 12 4 9 9 -3 4 -7 8 -9 8 -2 0 -6 -4
-9 -8z"/>
</g>
</svg>
